PathFileType	4	(X/Y/Z)	E:\MAC3D_DATA\2020_06_02_vinay\TPose1.trc																																																																
DataRate	CameraRate	NumFrames	NumMarkers	Units	OrigDataRate	OrigDataStartFrame	OrigNumFrames																																																												
1000	200	9	22	mm	200	374	498																																																												
Frame#	Time	RAsis			LAsis			RPsi			LPsi			RThigh1			RThigh2			RThigh3			RKneeOut			RKneeIn			LThigh1			LThigh2			LThigh3			LKneeOut			LKneeIn			MidAsis			MidPsi			MidPelvis			RHJC			LHJC			MidHJC			RKJC			LKJC		
		X1	Y1	Z1	X2	Y2	Z2	X3	Y3	Z3	X4	Y4	Z4	X5	Y5	Z5	X6	Y6	Z6	X7	Y7	Z7	X8	Y8	Z8	X9	Y9	Z9	X10	Y10	Z10	X11	Y11	Z11	X12	Y12	Z12	X13	Y13	Z13	X14	Y14	Z14	X15	Y15	Z15	X16	Y16	Z16	X17	Y17	Z17	X18	Y18	Z18	X19	Y19	Z19	X20	Y20	Z20	X21	Y21	Z21	X22	Y22	Z22
																																																																			
374	1.865	79.4837	1582.74	195.657	79.1681	1581.96	-78.8742	201.92	1531.17	58.7039	54.8643	1601.94	55.5905	2.52801	1486.73	62.8171	237.505	1026.78	193.2	248.342	1032.29	-48.6039	49.5783	1069.18	114.822	49.9243	1065.95	19.8854	169.987	766.083	268.851	100.895	708.072	276.644	185.163	709.341	246.878	107.161	541.837	271.789	97.547	525.391	160.31	191.351	778.498	-135.437	129.123	785.994	-147.966	142.072	715.058	-149.455	127.801	544.236	-145.712	106.214	526.428	-33.4724	21.1069	348.25	301.106	-1.27081	287.435	274.883	71.5057	316.216	292.087
375	1.87	79.4757	1582.71	195.637	79.1343	1581.94	-78.8708	201.901	1531.16	58.7365	54.841	1601.93	55.5859	2.53221	1486.7	62.7982	237.506	1026.78	193.199	248.332	1032.3	-48.611	49.5931	1069.14	114.842	49.8829	1065.95	19.9154	170.014	766.058	268.865	100.91	708.08	276.65	185.172	709.323	246.885	107.164	541.844	271.776	97.5543	525.422	160.314	191.339	778.515	-135.463	129.122	786.022	-148.013	142.076	715.074	-149.458	127.804	544.224	-145.709	106.214	526.398	-33.4594	21.0728	348.255	301.136	-1.27829	287.446	274.922	71.5266	316.234	292.102
376	1.875	79.4585	1582.71	195.68	79.097	1581.93	-78.8652	201.895	1531.13	58.7208	54.8351	1601.93	55.6103	2.51178	1486.59	62.9444	237.52	1026.76	193.184	248.334	1032.31	-48.6335	49.5681	1069.15	114.864	49.8991	1065.96	19.9087	170.015	766.068	268.849	100.95	708.085	276.63	185.179	709.341	246.878	107.156	541.846	271.813	97.5396	525.427	160.34	191.324	778.5	-135.451	129.095	785.999	-147.981	142.084	715.062	-149.505	127.799	544.234	-145.702	106.253	526.405	-33.4523	21.0984	348.235	301.118	-1.26704	287.438	274.895	71.5094	316.23	292.117
377	1.88	79.4623	1582.71	195.682	79.0853	1581.92	-78.8536	201.864	1531.15	58.7515	54.7807	1601.91	55.6331	2.42525	1486.69	62.8781	237.548	1026.77	193.19	248.337	1032.31	-48.6327	49.5966	1069.15	114.891	49.8689	1065.93	19.9149	170.028	766.062	268.867	100.95	708.091	276.642	185.193	709.319	246.87	107.168	541.826	271.809	97.6413	525.469	160.266	191.325	778.505	-135.477	129.078	785.981	-148.009	142.067	715.064	-149.43	127.798	544.225	-145.7	106.227	526.43	-33.4628	21.1268	348.248	301.135	-1.25523	287.463	274.894	71.5128	316.239	292.098
378	1.885	79.4519	1582.69	195.668	79.0568	1581.91	-78.8452	201.861	1531.13	58.7442	54.7641	1601.91	55.6176	2.44532	1486.68	62.8735	237.548	1026.77	193.191	248.332	1032.31	-48.6295	49.576	1069.15	114.896	49.8518	1065.97	19.9485	170.04	766.066	268.863	100.958	708.068	276.65	185.2	709.334	246.867	107.119	541.722	271.473	97.5194	525.437	160.351	191.312	778.504	-135.474	129.065	786.008	-147.99	142.079	715.053	-149.504	127.804	544.226	-145.707	106.249	526.42	-33.4615	21.1248	348.247	301.132	-1.27295	287.412	274.917	71.5296	316.243	292.111
379	1.89	79.4175	1582.68	195.691	79.0388	1581.9	-78.8225	201.848	1531.12	58.7444	54.7489	1601.89	55.6713	2.44438	1486.69	62.848	237.561	1026.77	193.177	248.322	1032.3	-48.6366	49.5699	1069.14	114.883	49.8718	1065.96	19.9485	170.062	766.066	268.851	100.991	708.082	276.652	185.217	709.341	246.863	107.215	541.869	271.825	97.4684	525.418	160.376	191.334	778.513	-135.482	129.074	785.984	-148.02	142.036	715.072	-149.462	127.816	544.236	-145.714	106.214	526.417	-33.4708	21.1234	348.211	301.122	-1.54832	287.435	274.916	71.5249	316.219	292.106
380	1.895	79.4137	1582.66	195.694	78.988	1581.9	-78.8135	201.821	1531.13	58.7473	54.6942	1601.9	55.6596	2.41835	1486.59	62.9764	237.555	1026.76	193.183	248.324	1032.31	-48.6658	49.5972	1069.12	114.893	49.8617	1065.98	19.9667	170.099	766.052	268.823	101.018	708.072	276.658	185.208	709.306	246.816	107.192	541.858	271.822	97.5148	525.452	160.326	191.302	778.502	-135.453	129.052	786.006	-148.029	142.064	715.057	-149.494	127.798	544.218	-145.729	106.24	526.426	-33.4599	21.1188	348.238	301.152	-1.24288	287.422	274.919	71.5195	316.22	292.109
381	1.9	79.404	1582.66	195.717	78.9442	1581.89	-78.784	201.795	1531.12	58.7704	54.6675	1601.88	55.6759	2.4164	1486.56	62.9877	237.559	1026.75	193.153	248.28	1032.29	-48.6855	49.5982	1069.12	114.904	49.8368	1065.97	19.9827	170.102	766.07	268.851	100.987	708.047	276.681	185.214	709.327	246.809	107.182	541.855	271.836	97.4477	525.433	160.35	191.267	778.517	-135.484	129.068	785.997	-148.019	142.003	715.061	-149.448	127.781	544.214	-145.708	106.223	526.408	-33.4768	21.1304	348.221	301.166	-1.57266	287.397	274.904	71.5385	316.234	292.107
382	1.905	79.4258	1582.66	195.721	78.9456	1581.9	-78.793	201.788	1531.11	58.7525	54.6629	1601.88	55.709	2.35905	1486.67	62.9002	237.557	1026.75	193.17	248.29	1032.28	-48.6747	49.5862	1069.1	114.921	49.8632	1065.95	19.9613	170.072	766.043	268.623	101.025	708.074	276.668	185.223	709.303	246.794	107.177	541.838	271.823	97.4906	525.497	160.385	191.299	778.504	-135.479	129.038	786.003	-148.011	142.058	715.058	-149.491	127.768	544.219	-145.722	106.209	526.414	-33.4555	21.1105	348.259	301.184	-1.26476	287.428	274.931	71.542	316.233	292.12
